<svg width="100" height="100" viewBox="0 0 100 100" fill="none" xmlns="http://www.w3.org/2000/svg">
    <g clip-path="url(#clip0)">
        <path d="M49.9993 2.2017C23.6416 2.2017 2.18479 23.6425 2.18479 50.0162C2.18479 76.3899 23.6256 97.8307 49.9993 97.8307C76.373 97.8307 97.8138 76.3899 97.8138 50.0162C97.8138 23.6425 76.377 2.2017 49.9993 2.2017V2.2017ZM49.9993 100.022C22.4263 100.022 -0.000732422 77.5892 -0.000732422 50.0222C-0.000732422 22.4551 22.4303 0.000244141 49.9993 0.000244141C77.5683 0.000244141 99.9993 22.4332 99.9993 50.0003C99.9993 77.5673 77.5723 100.002 49.9993 100.002" fill="#3B697E" />
        <path d="M58.2628 19.5485C58.2628 24.1187 54.5572 27.8244 49.987 27.8244C45.4167 27.8244 41.7111 24.1187 41.7111 19.5485C41.7111 14.9782 45.4167 11.2726 49.987 11.2726C54.5572 11.2726 58.2628 14.9782 58.2628 19.5485Z" fill="#3B697E" />
        <path d="M85.3059 51.1321C85.3059 55.7024 81.6002 59.408 77.03 59.408C72.4597 59.408 68.7541 55.7024 68.7541 51.1321C68.7541 46.5618 72.4597 42.8562 77.03 42.8562C81.6002 42.8562 85.3059 46.5618 85.3059 51.1321Z" fill="#3B697E" />
        <path d="M58.0795 82.7195C58.0795 87.2898 54.3739 90.9954 49.8036 90.9954C45.2333 90.9954 41.5277 87.2898 41.5277 82.7195C41.5277 78.1492 45.2333 74.4436 49.8036 74.4436C54.3739 74.4436 58.0795 78.1492 58.0795 82.7195Z" fill="#3B697E" />
        <path d="M24.2906 51.1121C24.2906 55.6824 20.585 59.388 16.0147 59.388C11.4445 59.388 7.73883 55.6824 7.73883 51.1121C7.73883 46.5418 11.4445 42.8362 16.0147 42.8362C20.0132 42.8362 23.3503 45.6732 24.1233 49.4446C24.2351 49.9934 24.2912 50.552 24.2906 51.1121ZM34.7421 67.7555L28.2074 51.4249L29.5721 50.879L34.7919 63.9284L40.7089 50.2315H47.6739L53.9097 34.7396L59.5239 50.7834H62.6757V52.2517H58.4859L53.8181 38.9134L48.67 51.7038H41.6971L34.7421 67.7555ZM69.7024 39.5848L55.0114 25.629L56.0235 24.5631L70.7145 38.519L69.7024 39.5848ZM56.2207 77.3981L55.1848 76.3622L69.1406 62.4063L70.1766 63.4423L56.2207 77.3981Z" fill="#3B697E" />
        <path d="M77.03 38.1543C73.6017 38.159 70.3152 39.523 67.8911 41.9472C65.4669 44.3713 64.1029 47.6579 64.0982 51.0861C64.1029 54.5144 65.4669 57.8009 67.8911 60.2251C70.3152 62.6492 73.6017 64.0132 77.03 64.018C80.4583 64.0132 83.7448 62.6492 86.169 60.2251C88.5931 57.8009 89.9571 54.5144 89.9618 51.0861C89.9571 47.6579 88.5931 44.3713 86.169 41.9472C83.7448 39.523 80.4583 38.159 77.03 38.1543V38.1543ZM77.03 65.4883C73.2128 65.4819 69.5537 63.9628 66.8546 61.2636C64.1554 58.5644 62.6362 54.9053 62.6299 51.0881C62.6362 47.2709 64.1554 43.6119 66.8546 40.9127C69.5537 38.2135 73.2128 36.6943 77.03 36.688C80.8472 36.6943 84.5063 38.2135 87.2055 40.9127C89.9046 43.6119 91.4238 47.2709 91.4301 51.0881C91.4238 54.9053 89.9046 58.5644 87.2055 61.2636C84.5063 63.9628 80.8472 65.4819 77.03 65.4883V65.4883ZM29.5582 52.2337H23.5316V50.7654H29.5582V52.2337Z" fill="#3B697E" />
    </g>
    <defs>
        <clipPath id="clip0">
            <rect width="100" height="100" fill="white" />
        </clipPath>
    </defs>
</svg>